<?xml version="1.0" encoding="utf-8"?>
<!-- Generator: Adobe Illustrator 22.0.1, SVG Export Plug-In . SVG Version: 6.00 Build 0)  -->
<svg version="1.1" id="Layer_1" xmlns="http://www.w3.org/2000/svg" xmlns:xlink="http://www.w3.org/1999/xlink" x="0px" y="0px"
	 viewBox="0 0 85.702 88.989" style="enable-background:new 0 0 85.702 88.989;" xml:space="preserve">
<style type="text/css">
	.st0{fill:url(#SVGID_1_);}
	.st1{opacity:0.3;}
	.st2{opacity:0.6;fill:#FFFFFF;}
</style>
<g>
	<linearGradient id="SVGID_1_" gradientUnits="userSpaceOnUse" x1="0" y1="44.1716" x2="85.099" y2="44.1716">
		<stop  offset="0" style="stop-color:#00F3FF"/>
		<stop  offset="0.2382" style="stop-color:#00F0FC"/>
		<stop  offset="0.4403" style="stop-color:#00E5F5"/>
		<stop  offset="0.6291" style="stop-color:#00D4E7"/>
		<stop  offset="0.8098" style="stop-color:#00BBD5"/>
		<stop  offset="0.9833" style="stop-color:#009BBD"/>
		<stop  offset="1" style="stop-color:#0098BA"/>
	</linearGradient>
	<path class="st0" d="M83.516,51.393c-1.42,2.52-3.79,4.47-6.56,5.29c-1.78,0.53-3.54,0.64-5.19,0.4c-2.4-0.36-4.85,0.25-6.57,1.98
		l-5.57,5.57c-1.27,1.26-1.95,3.04-1.67,4.81c0.13,0.85,0.2,1.72,0.2,2.6c0,8.99-7.29,16.3-16.3,16.3c-3.88,0-7.44-1.35-10.23-3.62
		c-0.07-0.05-0.12-0.09-0.16-0.11c-0.03-0.03-0.05-0.04-0.05-0.04c-3.59-3-5.87-7.5-5.87-12.53c0-6.74,4.08-12.52,9.91-15
		c1.99-0.85,3.28-2.81,3.28-4.98v-15.78c0-2.13-1.22-4.12-3.19-4.94c-0.62-0.26-1.22-0.57-1.8-0.9c-1.13-0.66-2.56-0.48-3.48,0.45
		c0,0-0.01,0.01-0.02,0.02l-5.67,5.67c-1.64,1.65-2.13,4.02-1.6,6.28c0.47,1.97,0.44,4.12-0.22,6.29c-1.15,3.76-4.31,6.74-8.13,7.68
		c-2.96,0.73-5.81,0.33-8.19-0.87h-0.01c-0.01-0.01-0.02-0.01-0.02-0.01c-2.22-1.12-4.04-2.93-5.16-5.15c0,0,0,0-0.01-0.01
		c0-0.01,0-0.01,0-0.01c0-0.01-0.01-0.02-0.02-0.04s-0.03-0.04-0.04-0.06c-1.01-2.08-1.43-4.5-1.02-7.03
		c0.73-4.58,4.28-8.39,8.8-9.43c1.4-0.33,2.76-0.39,4.05-0.24c2.37,0.28,4.74-0.41,6.43-2.1l5.29-5.3c1.45-1.45,2.12-3.59,1.52-5.55
		c-0.45-1.48-0.69-3.05-0.7-4.68c-0.02-8.73,7.26-16.19,15.99-16.35c4.11-0.08,7.87,1.35,10.78,3.79c0.01,0,0.01,0.01,0.01,0.01
		c0.03,0.02,0.04,0.03,0.04,0.03c3.54,2.99,5.79,7.46,5.79,12.47c0,0.25-0.01,0.49-0.02,0.73c0,0,0,0.01,0,0.03
		c-0.29,6.25-4.09,11.59-9.49,14.06c-1.85,0.85-2.94,2.8-2.94,4.84v16.42c0,1.41,0.53,2.77,1.46,3.76c0.05,0.06,0.08,0.1,0.08,0.1
		c0.4,0.4,0.87,0.74,1.41,0.98c1.09,0.5,2.12,1.12,3.07,1.85c1.16,0.89,2.79,0.82,3.82-0.21l1.37-1.37c0,0,0.01,0,0.02-0.01
		l3.5-3.51c1.57-1.57,2.08-3.84,1.62-6.01c-0.57-2.67-0.22-5.67,1.48-8.5c0.97-1.62,2.38-2.98,4.02-3.92
		c1.39-0.79,2.79-1.28,4.17-1.48c0.02-0.01,0.04-0.02,0.06-0.02c3.29-0.51,6.44,0.51,8.84,2.43c0,0,0,0,0.01,0.01
		c0.02,0.02,0.05,0.05,0.09,0.09C84.776,39.873,86.676,45.783,83.516,51.393z"/>
	<path class="st1" d="M30.266,30.888c0,0-1.516,2.135-4.033,5.094c-0.314,0.37-0.641,0.756-0.98,1.156
		c-0.328,0.394-0.553,0.716-0.77,1.148c-0.42,0.837-0.601,1.826-0.568,2.844c0.021,0.525,0.106,0.993,0.263,1.567
		c0.167,0.622,0.303,1.363,0.344,2.047c0.105,1.403-0.024,2.844-0.37,4.224c-0.365,1.358-0.99,2.727-1.798,3.869
		c-0.787,1.175-1.823,2.125-2.896,2.904c-1.072,0.79-2.26,1.323-3.415,1.67c-0.287,0.092-0.575,0.166-0.863,0.225
		c-0.149,0.032-0.27,0.065-0.438,0.094l-0.391,0.058c-0.561,0.07-1.111,0.115-1.621,0.112c-2.071,0.026-3.718-0.533-4.76-1.025
		c-0.53-0.238-0.911-0.494-1.171-0.655c-0.254-0.172-0.389-0.265-0.389-0.265s0.156,0.047,0.448,0.136
		c0.293,0.083,0.726,0.187,1.272,0.292c1.092,0.204,2.674,0.342,4.475,0.03c0.456-0.073,0.904-0.188,1.366-0.323l0.379-0.114
		l0.336-0.117c0.235-0.077,0.468-0.168,0.7-0.274c0.93-0.405,1.841-0.97,2.683-1.663c0.847-0.692,1.582-1.554,2.208-2.494
		c0.636-0.953,1.072-1.976,1.362-3.115c0.308-1.117,0.439-2.277,0.381-3.411c-0.036-0.585-0.091-1.094-0.198-1.686
		c-0.129-0.638-0.217-1.396-0.189-2.083c0.027-1.403,0.475-2.752,1.184-3.825c0.343-0.526,0.802-1.049,1.212-1.393
		c0.399-0.34,0.784-0.667,1.154-0.982C28.135,32.409,30.266,30.888,30.266,30.888z"/>
	<path class="st2" d="M39.876,52.233c0.01,1.3-0.36,2.69-1.2,3.82c-0.41,0.56-0.92,1.07-1.5,1.48c-0.15,0.1-0.28,0.2-0.46,0.3
		c-0.16,0.1-0.36,0.21-0.47,0.26l-0.78,0.38c-0.97,0.42-1.89,0.97-2.72,1.6c-0.85,0.62-1.64,1.29-2.33,2.02
		c-0.7,0.73-1.3,1.5-1.84,2.27c-0.5,0.78-0.97,1.54-1.32,2.29s-0.64,1.46-0.86,2.11c-0.22,0.66-0.39,1.23-0.51,1.72
		c-0.13,0.48-0.19,0.89-0.25,1.15c-0.06,0.27-0.09,0.41-0.09,0.41c0-6.74,4.08-12.52,9.91-15c1.99-0.85,3.28-2.81,3.28-4.98v-11.53
		c0,0,0.44,2.3,0.75,5.76c0.08,0.87,0.17,1.8,0.22,2.79C39.776,50.093,39.856,51.093,39.876,52.233z"/>
	<path class="st1" d="M80.629,36.477c0,0,0.282,0.214,0.81,0.614c0.493,0.444,1.261,1.082,1.998,2.11
		c0.743,1.014,1.523,2.39,1.931,4.146c0.236,0.87,0.317,1.834,0.334,2.852c-0.022,1.019-0.177,2.091-0.487,3.173
		c-0.34,1.067-0.769,2.168-1.412,3.2c-0.65,1.066-1.491,2.023-2.492,2.882c-1.005,0.847-2.18,1.563-3.487,2.069
		c-1.281,0.49-2.718,0.777-4.157,0.821c-0.707,0.025-1.5-0.026-2.153-0.112c-0.369-0.041-0.586-0.054-0.89-0.053
		c-0.292-0.005-0.584,0.017-0.872,0.049c-1.156,0.133-2.254,0.566-3.147,1.259c-0.232,0.188-0.405,0.345-0.653,0.597l-0.736,0.744
		l-1.479,1.495c-0.988,0.999-1.98,2.002-2.972,3.004c-0.261,0.257-0.464,0.47-0.613,0.659c-0.176,0.215-0.324,0.451-0.457,0.692
		c-0.266,0.483-0.431,1.011-0.497,1.538c-0.075,0.553,0.009,0.955,0.113,1.81c0.075,0.77,0.123,1.449,0.088,2.29
		c-0.055,0.708-0.033,1.342-0.184,2.135l-0.191,1.131l-0.289,1.063c-0.163,0.715-0.478,1.376-0.722,2.053
		c-0.304,0.651-0.61,1.301-0.97,1.909c-1.436,2.443-3.42,4.415-5.586,5.792c-2.175,1.377-4.524,2.146-6.715,2.434
		c-2.199,0.303-4.238,0.145-5.959-0.267c-1.73-0.402-3.147-1.034-4.235-1.656c-1.097-0.614-1.865-1.233-2.373-1.66
		c-0.508-0.43-0.759-0.679-0.759-0.679s0.284,0.213,0.842,0.565c0.555,0.356,1.4,0.831,2.518,1.31
		c1.117,0.479,2.536,0.908,4.188,1.142c1.655,0.228,3.553,0.186,5.527-0.226c1.974-0.418,4.016-1.267,5.886-2.575
		c1.857-1.328,3.478-3.16,4.674-5.306c0.296-0.538,0.539-1.111,0.786-1.68c0.186-0.594,0.448-1.169,0.563-1.791l0.221-0.92
		l0.122-0.904c0.122-0.561,0.106-1.319,0.15-1.995c0.019-0.547-0.026-1.263-0.098-1.882l-0.144-1.064
		c-0.04-0.437-0.037-0.876,0.008-1.311c0.097-0.867,0.357-1.709,0.76-2.465c0.201-0.379,0.429-0.743,0.695-1.078
		c0.285-0.366,0.573-0.662,0.815-0.899c1.003-0.992,2.006-1.984,3.004-2.972l1.495-1.479l0.744-0.736
		c0.242-0.243,0.583-0.556,0.897-0.797c1.305-1.01,2.897-1.561,4.448-1.681c0.388-0.031,0.776-0.045,1.16-0.027
		c0.372,0.008,0.827,0.057,1.124,0.103c0.676,0.108,1.217,0.156,1.832,0.16c2.404-0.006,4.709-0.757,6.469-2.113
		c0.881-0.669,1.646-1.476,2.25-2.316c0.634-0.863,1.08-1.806,1.454-2.725c0.685-1.866,0.842-3.743,0.592-5.37
		c-0.229-1.632-0.791-3.006-1.39-4.054c-0.6-1.056-1.231-1.787-1.659-2.285C80.879,36.727,80.629,36.477,80.629,36.477z"/>
	<path class="st2" d="M71.726,34.063c-0.17,0.07-0.57,0.23-1.13,0.49c-0.38,0.17-0.82,0.41-1.3,0.69c-0.5,0.29-1,0.64-1.55,1.05
		c-0.53,0.42-1.06,0.91-1.57,1.46c-0.51,0.55-0.97,1.2-1.38,1.88c-0.82,1.4-1.42,3.03-1.62,4.71c-0.11,0.84-0.1,1.69-0.03,2.52
		c0.08,0.73,0.34,1.91,0.21,2.94c-0.07,1.04-0.4,2.02-0.85,2.85c-0.23,0.42-0.48,0.81-0.78,1.14c-0.14,0.16-0.33,0.35-0.47,0.48
		l-0.21,0.18l-0.23,0.19c-1.12,0.9-2.1,1.61-2.79,2.1c-0.6,0.43-1,0.68-1.09,0.74l3.5-3.51c1.57-1.57,2.08-3.84,1.62-6.01
		c-0.57-2.67-0.22-5.67,1.48-8.5c0.97-1.62,2.38-2.98,4.02-3.92C68.946,34.753,70.346,34.263,71.726,34.063z"/>
	<path class="st1" d="M58.141,17.031c0,0,0.011,0.175,0.03,0.504c0.022,0.329,0.062,0.808,0.02,1.435
		c-0.003,0.316-0.038,0.659-0.082,1.034c-0.028,0.379-0.105,0.78-0.196,1.209c-0.162,0.864-0.452,1.821-0.872,2.832
		c-0.844,2.01-2.305,4.233-4.468,6.014c-0.531,0.452-1.109,0.872-1.718,1.258c-0.306,0.19-0.607,0.396-0.934,0.56l-0.917,0.476
		c-0.859,0.459-1.561,1.365-1.827,2.403c-0.07,0.258-0.134,0.52-0.157,0.789c-0.021,0.133-0.018,0.268-0.028,0.402l-0.006,0.517
		c-0.008,0.693-0.015,1.383-0.023,2.068c0,1.37-0.077,2.718-0.111,4.022c-0.091,2.609-0.23,5.044-0.398,7.132
		c-0.07,1.038-0.168,2.012-0.246,2.836c-0.056,0.774,0.043,1.48,0.214,2.037c0.175,0.557,0.379,0.988,0.549,1.264
		c0.168,0.278,0.278,0.417,0.278,0.417s-0.143-0.102-0.388-0.328c-0.24-0.229-0.594-0.587-0.913-1.145
		c-0.322-0.552-0.635-1.297-0.735-2.222c-0.092-0.872-0.18-1.811-0.253-2.86c-0.168-2.087-0.308-4.522-0.398-7.132
		c-0.033-1.305-0.11-2.653-0.111-4.022c-0.007-0.685-0.015-1.375-0.023-2.068l-0.005-0.524c0.006-0.213,0.003-0.426,0.028-0.638
		c0.032-0.425,0.113-0.846,0.226-1.259c0.474-1.643,1.606-3.125,3.19-3.926l0.911-0.442c0.291-0.121,0.558-0.283,0.833-0.428
		c0.545-0.297,1.069-0.626,1.555-0.988c0.971-0.723,1.88-1.49,2.627-2.336c0.741-0.846,1.397-1.701,1.922-2.553
		c0.502-0.86,0.943-1.679,1.249-2.445c0.166-0.38,0.298-0.744,0.413-1.086c0.124-0.34,0.233-0.655,0.304-0.944
		c0.166-0.573,0.288-1.048,0.349-1.37C58.102,17.202,58.141,17.031,58.141,17.031z"/>
	<path class="st2" d="M52.316,3.793c-0.11-0.07-0.36-0.25-0.76-0.51c-0.54-0.35-1.35-0.82-2.43-1.29c-1.08-0.47-2.44-0.91-4.04-1.16
		c-1.59-0.26-3.42-0.26-5.35,0.07c-1.92,0.35-3.91,1.13-5.76,2.34c-1.84,1.22-3.53,2.89-4.81,4.9c-1.25,2-2.08,4.45-2.29,6.81
		l-0.05,1.01l-0.01,0.43l0.01,0.47c0.03,0.63,0.09,1.25,0.2,1.87c0.1,0.61,0.24,1.22,0.43,1.83c0.24,0.73,0.36,1.66,0.29,2.49
		c-0.14,1.69-0.97,3.28-2.08,4.39c-0.97,0.97-1.94,1.93-2.91,2.89c-0.48,0.47-0.95,0.94-1.43,1.41c-0.5,0.48-0.88,0.89-1.51,1.43
		c-1.18,0.99-2.62,1.62-4.06,1.85c-0.72,0.13-1.43,0.16-2.16,0.12c-0.73-0.05-1.26-0.16-1.82-0.17c-1.11-0.04-2.23,0.09-3.26,0.37
		c-2.07,0.57-3.86,1.74-5.16,3.15c-1.3,1.41-2.15,3.05-2.58,4.56c-0.43,1.56-0.49,2.98-0.4,4.14c0.1,1.17,0.33,2.08,0.53,2.69
		c0.17,0.51,0.3,0.82,0.33,0.9c-0.01-0.02-0.03-0.05-0.06-0.1c-1.01-2.08-1.43-4.5-1.02-7.03c0.73-4.58,4.28-8.39,8.8-9.43
		c1.4-0.33,2.76-0.39,4.05-0.24c2.37,0.28,4.74-0.41,6.43-2.1l5.29-5.3c1.45-1.45,2.12-3.59,1.52-5.55
		c-0.45-1.48-0.69-3.05-0.7-4.68c-0.02-8.73,7.26-16.19,15.99-16.35C45.646-0.077,49.406,1.353,52.316,3.793z"/>
</g>
<g>
</g>
<g>
</g>
<g>
</g>
<g>
</g>
<g>
</g>
<g>
</g>
<g>
</g>
<g>
</g>
<g>
</g>
<g>
</g>
<g>
</g>
<g>
</g>
<g>
</g>
<g>
</g>
<g>
</g>
</svg>
